<svg width="20" height="17" viewBox="0 0 20 17" fill="none" xmlns="http://www.w3.org/2000/svg">
<path d="M2.15297 5.49374C2.3986 5.66707 3.13903 6.18187 4.37428 7.03786C5.60958 7.89385 6.5559 8.55295 7.21329 9.01518C7.28551 9.06584 7.43896 9.17598 7.6737 9.34575C7.90847 9.51562 8.10355 9.6529 8.25878 9.75761C8.41412 9.86229 8.60191 9.97971 8.82234 10.1097C9.0427 10.2396 9.25042 10.3373 9.44546 10.4019C9.64054 10.4671 9.82112 10.4994 9.98724 10.4994H9.99813H10.0091C10.1752 10.4994 10.3558 10.4671 10.5509 10.4019C10.7459 10.3373 10.9538 10.2395 11.174 10.1097C11.3942 9.97956 11.582 9.86225 11.7374 9.75761C11.8927 9.6529 12.0876 9.51562 12.3225 9.34575C12.5572 9.17583 12.7108 9.06584 12.783 9.01518C13.4475 8.55295 15.1381 7.37902 17.8541 5.49351C18.3815 5.12525 18.822 4.6809 19.1759 4.16075C19.5301 3.64083 19.707 3.09541 19.707 2.52479C19.707 2.04794 19.5354 1.63976 19.1922 1.30027C18.849 0.960704 18.4426 0.791016 17.9732 0.791016H2.0229C1.4667 0.791016 1.03867 0.978807 0.738875 1.35439C0.439122 1.73005 0.289246 2.19961 0.289246 2.76302C0.289246 3.21811 0.487968 3.71128 0.885222 4.2422C1.28244 4.77316 1.70516 5.19038 2.15297 5.49374Z" fill="#2978ED"/>
<path d="M18.6228 6.653C16.2536 8.25656 14.4547 9.50279 13.2268 10.3914C12.815 10.6947 12.481 10.9315 12.2245 11.1011C11.9679 11.2709 11.6268 11.4442 11.2005 11.6211C10.7743 11.7983 10.3772 11.8866 10.0087 11.8866H9.99768H9.98678C9.61837 11.8866 9.22101 11.7983 8.79487 11.6211C8.36873 11.4442 8.02735 11.2709 7.7709 11.1011C7.51452 10.9315 7.18039 10.6947 6.76867 10.3914C5.79339 9.67631 3.99829 8.43 1.38329 6.653C0.971419 6.37868 0.606614 6.06424 0.288757 5.71033V14.3137C0.288757 14.7908 0.458445 15.1987 0.798011 15.5383C1.1375 15.8779 1.54572 16.0477 2.02253 16.0477H17.9729C18.4496 16.0477 18.8578 15.8779 19.1973 15.5383C19.5369 15.1986 19.7066 14.7908 19.7066 14.3137V5.71033C19.3959 6.05691 19.0348 6.37136 18.6228 6.653Z" fill="#2978ED"/>
</svg>
