<svg width="20" height="26" viewBox="0 0 20 26" fill="none" xmlns="http://www.w3.org/2000/svg">
<path d="M9.99806 7.28308C8.55218 7.28308 7.37585 8.4594 7.37585 9.90529C7.37585 11.3512 8.55218 12.5275 9.99806 12.5275C11.4439 12.5275 12.6203 11.3512 12.6203 9.90529C12.6203 8.4594 11.444 7.28308 9.99806 7.28308Z" fill="#2978ED"/>
<path d="M9.99786 0.325684C4.64424 0.325684 0.288696 4.68117 0.288696 10.0348C0.288696 12.3033 1.07076 14.3924 2.37935 16.047L9.99786 25.6256L17.6164 16.047C18.925 14.3924 19.707 12.3033 19.707 10.0348C19.707 4.68117 15.3515 0.325684 9.99786 0.325684ZM9.99786 14.2757C7.58805 14.2757 5.62752 12.3151 5.62752 9.90531C5.62752 7.4955 7.58805 5.53496 9.99786 5.53496C12.4077 5.53496 14.3682 7.4955 14.3682 9.90531C14.3682 12.3151 12.4077 14.2757 9.99786 14.2757Z" fill="#2978ED"/>
</svg>
