<svg width="49" height="49" viewBox="0 0 49 49" fill="none" xmlns="http://www.w3.org/2000/svg">
<path d="M28.6536 24.3753C28.6536 26.9178 26.5927 28.9787 24.0503 28.9787C21.5078 28.9787 19.4469 26.9178 19.4469 24.3753C19.4469 21.8329 21.5078 19.772 24.0503 19.772C26.5927 19.772 28.6536 21.8329 28.6536 24.3753Z" fill="url(#paint0_linear)"/>
<path d="M34.8159 16.2305C34.5946 15.6309 34.2416 15.0881 33.7829 14.6426C33.3374 14.1839 32.795 13.8308 32.195 13.6096C31.7083 13.4206 30.9773 13.1956 29.6309 13.1343C28.1743 13.0679 27.7376 13.0536 24.0502 13.0536C20.3625 13.0536 19.9258 13.0675 18.4696 13.134C17.1232 13.1956 16.3918 13.4206 15.9055 13.6096C15.3055 13.8308 14.7628 14.1839 14.3176 14.6426C13.8589 15.0881 13.5059 15.6305 13.2842 16.2305C13.0952 16.7171 12.8703 17.4485 12.809 18.795C12.7426 20.2511 12.7282 20.6878 12.7282 24.3756C12.7282 28.063 12.7426 28.4997 12.809 29.9562C12.8703 31.3027 13.0952 32.0337 13.2842 32.5203C13.5059 33.1203 13.8585 33.6627 14.3173 34.1082C14.7628 34.5669 15.3052 34.92 15.9052 35.1413C16.3918 35.3306 17.1232 35.5556 18.4696 35.6169C19.9258 35.6833 20.3621 35.6972 24.0499 35.6972C27.738 35.6972 28.1747 35.6833 29.6305 35.6169C30.977 35.5556 31.7083 35.3306 32.195 35.1413C33.3994 34.6767 34.3513 33.7247 34.8159 32.5203C35.0049 32.0337 35.2299 31.3027 35.2915 29.9562C35.3579 28.4997 35.3719 28.063 35.3719 24.3756C35.3719 20.6878 35.3579 20.2511 35.2915 18.795C35.2302 17.4485 35.0053 16.7171 34.8159 16.2305ZM24.0502 31.4667C20.1335 31.4667 16.9584 28.292 16.9584 24.3752C16.9584 20.4585 20.1335 17.2837 24.0502 17.2837C27.9666 17.2837 31.1417 20.4585 31.1417 24.3752C31.1417 28.292 27.9666 31.4667 24.0502 31.4667ZM31.4221 18.6606C30.5069 18.6606 29.7648 17.9186 29.7648 17.0034C29.7648 16.0881 30.5069 15.3461 31.4221 15.3461C32.3373 15.3461 33.0794 16.0881 33.0794 17.0034C33.079 17.9186 32.3373 18.6606 31.4221 18.6606Z" fill="url(#paint1_linear)"/>
<path d="M24.0503 0.325195C10.7697 0.325195 0 11.0949 0 24.3755C0 37.656 10.7697 48.4257 24.0503 48.4257C37.3308 48.4257 48.1005 37.656 48.1005 24.3755C48.1005 11.0949 37.3308 0.325195 24.0503 0.325195ZM37.7771 30.0691C37.7103 31.5392 37.4765 32.5429 37.1352 33.4215C36.4178 35.2766 34.9514 36.743 33.0963 37.4604C32.2181 37.8017 31.2141 38.0351 29.7443 38.1023C28.2716 38.1694 27.8012 38.1856 24.0506 38.1856C20.2998 38.1856 19.8297 38.1694 18.3566 38.1023C16.8869 38.0351 15.8828 37.8017 15.0046 37.4604C14.0828 37.1136 13.2483 36.5701 12.5584 35.8674C11.856 35.1778 11.3125 34.343 10.9657 33.4215C10.6244 32.5433 10.3906 31.5392 10.3238 30.0695C10.2559 28.5964 10.2402 28.126 10.2402 24.3755C10.2402 20.625 10.2559 20.1545 10.3235 18.6818C10.3902 17.2117 10.6236 16.208 10.9649 15.3295C11.3117 14.408 11.8556 13.5731 12.5584 12.8836C13.2479 12.1808 14.0828 11.6373 15.0043 11.2905C15.8828 10.9492 16.8865 10.7158 18.3566 10.6487C19.8293 10.5815 20.2998 10.5654 24.0503 10.5654C27.8008 10.5654 28.2713 10.5815 29.7439 10.649C31.2141 10.7158 32.2177 10.9492 33.0963 11.2901C34.0178 11.6369 34.8526 12.1808 35.5426 12.8836C36.245 13.5735 36.7888 14.408 37.1352 15.3295C37.4769 16.208 37.7103 17.2117 37.7775 18.6818C37.8446 20.1545 37.8604 20.625 37.8604 24.3755C37.8604 28.126 37.8446 28.5964 37.7771 30.0691Z" fill="url(#paint2_linear)"/>
<defs>
<linearGradient id="paint0_linear" x1="24.0503" y1="19.772" x2="24.0503" y2="28.9787" gradientUnits="userSpaceOnUse">
<stop stop-color="#8B42B0"/>
<stop offset="0.53125" stop-color="#DE624A"/>
<stop offset="0.989583" stop-color="#F4C666"/>
</linearGradient>
<linearGradient id="paint1_linear" x1="24.0501" y1="13.0536" x2="24.0501" y2="35.6972" gradientUnits="userSpaceOnUse">
<stop stop-color="#8B42B0"/>
<stop offset="0.53125" stop-color="#DE624A"/>
<stop offset="0.989583" stop-color="#F4C666"/>
</linearGradient>
<linearGradient id="paint2_linear" x1="24.0503" y1="0.325195" x2="24.0503" y2="48.4257" gradientUnits="userSpaceOnUse">
<stop stop-color="#8B42B0"/>
<stop offset="0.53125" stop-color="#DE624A"/>
<stop offset="0.989583" stop-color="#F4C666"/>
</linearGradient>
</defs>
</svg>
