<svg width="50" height="49" viewBox="0 0 50 49" fill="none" xmlns="http://www.w3.org/2000/svg">
<path d="M21.9952 28.8813L29.8184 24.3755L21.9952 19.8698V28.8813Z" fill="#CC1D1D"/>
<path d="M24.9908 0.325195C11.7103 0.325195 0.940552 11.0949 0.940552 24.3755C0.940552 37.656 11.7103 48.4257 24.9908 48.4257C38.2714 48.4257 49.0411 37.656 49.0411 24.3755C49.0411 11.0949 38.2714 0.325195 24.9908 0.325195ZM40.0186 24.4001C40.0186 24.4001 40.0186 29.2776 39.3998 31.6295C39.0531 32.9169 38.038 33.9319 36.7506 34.2784C34.3987 34.8975 24.9908 34.8975 24.9908 34.8975C24.9908 34.8975 15.6076 34.8975 13.231 34.2538C11.9437 33.9074 10.9286 32.8919 10.5818 31.6046C9.96271 29.2776 9.96271 24.3755 9.96271 24.3755C9.96271 24.3755 9.96271 19.4983 10.5818 17.1464C10.9282 15.859 11.9682 14.819 13.231 14.4726C15.583 13.8535 24.9908 13.8535 24.9908 13.8535C24.9908 13.8535 34.3987 13.8535 36.7506 14.4972C38.038 14.8436 39.0531 15.859 39.3998 17.1464C40.0435 19.4983 40.0186 24.4001 40.0186 24.4001Z" fill="#CC1D1D"/>
</svg>
