<svg width="21" height="20" viewBox="0 0 21 20" fill="none" xmlns="http://www.w3.org/2000/svg">
<path d="M20.3496 15.3492C20.3908 15.6647 20.2947 15.939 20.0618 16.172L17.3278 18.8872C17.2044 19.0244 17.0434 19.141 16.8447 19.2369C16.646 19.3329 16.4508 19.3947 16.259 19.422C16.2452 19.422 16.204 19.4256 16.1355 19.4324C16.0671 19.4393 15.978 19.4427 15.8683 19.4427C15.6079 19.4427 15.1864 19.3982 14.604 19.309C14.0216 19.2198 13.3089 19.0004 12.4662 18.6508C11.6232 18.3011 10.6674 17.7765 9.59844 17.0771C8.52952 16.3779 7.392 15.4178 6.186 14.1973C5.22669 13.2511 4.43182 12.346 3.80141 11.4821C3.171 10.6181 2.66393 9.81927 2.28021 9.0856C1.89644 8.35193 1.60865 7.68683 1.41679 7.09029C1.22492 6.49375 1.09473 5.9795 1.02621 5.54752C0.957682 5.11555 0.930273 4.77614 0.943978 4.52929C0.957682 4.28245 0.964535 4.14532 0.964535 4.11789C0.991944 3.9259 1.05361 3.73048 1.14955 3.53164C1.24548 3.33279 1.36197 3.17166 1.49901 3.04824L4.23307 0.312397C4.42494 0.120408 4.64421 0.0244141 4.89089 0.0244141C5.06905 0.0244141 5.22665 0.0758396 5.3637 0.178691C5.50074 0.281542 5.61723 0.408392 5.71316 0.55924L7.91274 4.735C8.03609 4.95441 8.07035 5.1944 8.01553 5.45496C7.96071 5.71551 7.84422 5.93493 7.66606 6.1132L6.65878 7.12114C6.63137 7.14857 6.60739 7.19314 6.58683 7.25485C6.56627 7.31656 6.55599 7.36799 6.55599 7.40913C6.61081 7.69711 6.73415 8.02623 6.92602 8.3965C7.09047 8.72562 7.34401 9.12674 7.68662 9.59986C8.02923 10.073 8.51574 10.6181 9.14615 11.2352C9.76286 11.866 10.311 12.3562 10.7907 12.706C11.2703 13.0556 11.6713 13.3128 11.9933 13.4773C12.3154 13.6419 12.562 13.7413 12.7333 13.7755L12.9902 13.827C13.0176 13.827 13.0623 13.8167 13.1239 13.7961C13.1855 13.7755 13.2301 13.7516 13.2575 13.7241L14.4292 12.531C14.676 12.3116 14.9637 12.2019 15.2926 12.2019C15.5257 12.2019 15.7106 12.243 15.8476 12.3253H15.8682L19.8356 14.6704C20.1235 14.8488 20.2948 15.075 20.3496 15.3492Z" fill="#2978ED"/>
</svg>
